<?xml version="1.0" standalone="no"?>
<!DOCTYPE svg PUBLIC "-//W3C//DTD SVG 20010904//EN"
 "http://www.w3.org/TR/2001/REC-SVG-20010904/DTD/svg10.dtd">
<svg version="1.0" xmlns="http://www.w3.org/2000/svg"
 width="500.000000pt" height="500.000000pt" viewBox="0 0 500.000000 500.000000"
 preserveAspectRatio="xMidYMid meet">

<g transform="translate(0.000000,500.000000) scale(0.100000,-0.100000)"
fill="#000000" stroke="none">
<path d="M2348 4227 c-69 -20 -154 -75 -212 -138 l-51 -56 -60 10 c-113 19
-225 -35 -281 -135 -25 -46 -29 -63 -29 -128 1 -122 53 -199 170 -251 40 -18
61 -21 120 -16 l71 5 12 -61 c13 -71 64 -247 58 -202 -11 76 -29 285 -25 289
3 3 49 17 104 32 85 22 122 26 250 28 158 1 228 -12 347 -63 l46 -20 -9 -43
c-5 -24 -23 -93 -40 -155 l-31 -111 -36 15 c-125 52 -393 55 -548 6 -47 -14
-53 -19 -48 -37 9 -30 10 -31 51 -13 118 52 430 49 536 -5 22 -11 40 -18 42
-16 4 4 111 288 119 315 6 19 12 21 39 15 185 -41 340 73 341 253 2 127 -75
233 -192 266 -48 13 -155 7 -177 -11 -11 -9 -19 -2 -43 32 -47 68 -127 137
-200 171 -60 28 -78 32 -172 34 -64 2 -123 -2 -152 -10z m293 -56 c70 -27 170
-116 210 -186 l30 -53 42 21 c84 41 193 20 259 -50 79 -82 79 -224 0 -306 -76
-81 -172 -89 -317 -27 -137 58 -195 71 -341 77 -158 7 -272 -10 -422 -62 -82
-28 -111 -34 -145 -29 -197 31 -269 263 -121 393 55 48 113 64 184 51 28 -5
59 -14 68 -19 12 -7 24 2 54 44 35 49 100 105 155 134 87 45 244 51 344 12z"/>
<path d="M2335 3809 c-88 -11 -247 -56 -257 -72 -14 -23 11 -32 55 -19 141 41
227 54 347 55 139 0 218 -15 334 -63 81 -35 99 -37 94 -12 -4 23 -95 67 -193
93 -93 24 -272 33 -380 18z"/>
<path d="M2365 3391 c-16 -27 14 -38 83 -33 38 2 106 -1 153 -8 46 -7 99 -15
117 -17 29 -5 33 -3 30 13 -5 29 -80 46 -234 51 -102 4 -143 2 -149 -6z"/>
<path d="M1725 3193 c-78 -15 -401 -87 -404 -90 -3 -2 3 -16 12 -32 25 -42
170 -706 162 -742 -4 -16 -4 -29 0 -29 27 0 415 93 448 108 60 27 112 75 138
128 30 63 24 161 -15 222 -29 47 -88 82 -137 82 l-33 0 26 28 c39 41 51 71 51
127 0 94 -66 176 -153 190 -65 11 -75 12 -95 8z m43 -196 c55 -51 12 -110
-100 -137 l-73 -17 -11 36 c-6 20 -15 55 -18 77 l-7 40 73 16 c81 17 103 15
136 -15z m113 -296 c39 -40 40 -91 1 -130 -20 -21 -48 -32 -107 -45 -44 -10
-86 -18 -94 -19 -11 -1 -20 20 -33 73 -27 118 -28 115 50 132 110 25 149 23
183 -11z"/>
<path d="M3472 3044 c-30 -18 -87 -43 -127 -55 l-74 -23 -20 -75 c-21 -76 -18
-90 16 -91 7 0 -1 -44 -23 -127 -56 -212 -44 -284 56 -335 40 -21 68 -28 109
-28 31 0 61 4 67 8 6 4 15 37 18 74 l8 68 -31 -6 c-44 -9 -81 17 -81 57 0 50
52 239 66 239 7 0 23 -4 36 -9 73 -26 76 -25 92 31 32 112 33 104 -21 117 -77
19 -77 17 -53 105 12 43 20 79 18 80 -1 1 -27 -12 -56 -30z"/>
<path d="M2379 3050 c-92 -16 -168 -70 -206 -148 -25 -51 -28 -68 -28 -157 0
-81 4 -109 21 -146 52 -112 132 -163 259 -163 63 0 90 5 127 23 43 21 108 80
108 99 0 4 -24 31 -53 60 l-53 53 -20 -22 c-24 -27 -67 -49 -94 -49 -36 0 -85
28 -104 60 -21 37 -20 37 94 42 100 5 159 31 198 88 33 48 28 132 -11 183 -47
62 -143 93 -238 77z m82 -160 c29 -16 25 -71 -7 -110 -27 -32 -92 -70 -119
-70 -11 0 -15 11 -15 46 0 54 28 107 68 129 33 17 47 18 73 5z"/>
<path d="M2842 3011 c-29 -10 -64 -28 -77 -41 -56 -52 -70 -132 -35 -200 24
-47 54 -69 164 -120 67 -30 86 -44 86 -60 0 -17 -6 -20 -49 -20 -39 0 -68 9
-127 40 -43 22 -78 39 -80 37 -5 -6 -54 -135 -54 -143 0 -5 19 -21 43 -36 140
-87 340 -72 412 32 38 54 43 107 16 164 -24 48 -67 81 -180 135 -71 34 -86 49
-69 69 8 9 23 11 47 7 40 -8 147 -58 174 -82 9 -9 19 -14 20 -12 10 13 69 160
66 163 -18 17 -121 59 -171 71 -82 19 -121 18 -186 -4z"/>
<path d="M1780 2223 c-29 -11 -60 -47 -65 -77 -8 -41 16 -106 65 -174 l40 -57
-39 -33 c-53 -44 -68 -89 -45 -138 35 -73 131 -77 200 -7 42 41 44 80 9 142
-14 23 -25 45 -25 47 0 5 57 34 68 34 5 0 12 -12 15 -27 8 -43 49 -95 82 -108
51 -20 91 -2 120 53 l25 47 -2 -45 c-2 -34 1 -45 12 -45 19 0 38 122 39 244 1
72 3 82 17 77 9 -3 21 -6 28 -6 10 0 13 -33 12 -137 -1 -125 1 -142 22 -180
44 -83 104 -68 155 37 l34 71 7 -53 c8 -63 29 -98 56 -98 24 0 32 19 67 155
14 55 27 102 29 104 2 2 19 -11 39 -30 26 -25 35 -43 35 -67 0 -40 24 -100 48
-118 31 -24 81 -17 120 17 34 30 36 31 43 11 11 -29 54 -55 78 -47 11 3 34 22
52 43 29 32 32 34 26 12 -34 -142 -32 -224 9 -242 21 -10 28 -8 49 12 29 28
125 171 125 188 0 27 -19 8 -74 -73 -56 -82 -73 -101 -81 -93 -7 6 80 255 129
372 25 60 46 115 46 121 0 20 -42 26 -61 9 -9 -8 -31 -42 -48 -75 l-32 -59
-50 0 c-65 0 -95 -17 -151 -82 -51 -59 -121 -113 -136 -104 -29 18 -23 146 7
146 32 0 79 38 91 75 16 50 -6 85 -54 85 -44 0 -83 -32 -111 -92 -21 -45 -23
-47 -38 -30 -9 10 -22 35 -29 57 -11 32 -18 40 -38 40 -23 0 -26 -6 -46 -95
-11 -52 -25 -109 -31 -125 -10 -30 -13 -7 -26 200 -2 33 -6 41 -24 43 -18 3
-23 -3 -27 -35 -19 -129 -80 -303 -106 -303 -24 0 -32 58 -28 205 l3 150 -65
6 c-36 4 -74 9 -85 10 -19 4 -21 -3 -27 -93 -6 -87 -11 -106 -45 -170 -21 -41
-45 -73 -53 -73 -8 0 -28 26 -44 58 l-29 57 37 36 c30 29 36 42 36 78 0 49
-22 76 -62 76 -43 0 -88 -71 -88 -141 0 -23 -7 -30 -45 -45 l-45 -17 -22 28
c-72 89 -96 128 -102 161 -13 67 25 69 68 3 23 -34 29 -38 46 -29 24 13 25 22
5 60 -23 44 -75 68 -115 53z m320 -156 c0 -35 -18 -70 -31 -61 -10 6 -4 88 8
108 9 13 23 -16 23 -47z m830 24 c0 -32 -43 -91 -56 -79 -8 8 7 46 32 86 19
29 24 28 24 -7z m184 -178 c-38 -41 -70 -70 -72 -64 -6 19 46 118 71 134 28
18 61 26 65 15 2 -5 -27 -43 -64 -85z m-1244 -70 c38 -59 39 -97 4 -119 -19
-13 -32 -15 -52 -8 -33 11 -67 74 -57 105 8 23 52 69 67 69 4 0 22 -21 38 -47z"/>
<path d="M2552 1740 c-18 -4 -66 -20 -107 -35 -62 -22 -81 -35 -120 -80 -44
-52 -47 -54 -138 -74 -145 -32 -249 -43 -426 -45 -139 -1 -165 -3 -174 -17
-30 -47 54 -90 188 -96 142 -7 300 25 482 98 27 11 41 11 80 -1 73 -22 138
-17 230 19 93 37 146 69 151 93 2 13 -15 9 -98 -19 -56 -19 -104 -32 -108 -29
-12 13 22 32 116 67 63 23 98 42 100 52 6 31 -29 30 -123 -3 -117 -40 -157
-36 -64 7 37 17 83 36 103 43 20 6 34 16 31 21 -7 11 -76 10 -123 -1z"/>
<path d="M2965 1600 c-7 -12 2 -30 16 -30 5 0 9 9 9 20 0 21 -15 27 -25 10z"/>
<path d="M3310 1546 c-160 -105 -530 -248 -594 -231 -11 4 -45 18 -73 32 -124
60 -305 31 -357 -58 -21 -36 -20 -57 4 -97 14 -22 39 -42 76 -59 50 -23 65
-25 147 -21 108 5 145 20 202 85 40 44 41 45 150 64 124 22 327 87 395 126
105 60 148 111 136 159 -8 31 -39 31 -86 0z m-705 -250 c48 -20 42 -29 -11
-15 -59 17 -155 6 -208 -24 -25 -14 -46 -22 -46 -17 0 13 59 55 95 69 38 14
120 7 170 -13z"/>
<path d="M2752 1474 c-24 -43 36 -88 65 -49 17 24 16 30 -3 49 -20 21 -51 20
-62 0z"/>
<path d="M2086 1294 c-25 -24 -20 -61 10 -81 24 -15 29 -15 53 -2 32 18 39 54
15 80 -21 23 -57 25 -78 3z"/>
<path d="M2870 1055 c-20 -25 -8 -50 25 -50 21 0 31 5 33 18 4 21 -14 47 -33
47 -7 0 -18 -7 -25 -15z"/>
<path d="M2228 1008 c-8 -21 2 -38 22 -38 19 0 30 17 23 38 -3 6 -13 12 -23
12 -10 0 -20 -6 -22 -12z"/>
</g>
</svg>
